<svg width="0" height="0" class="hidden">
<symbol id="guest-house" viewBox="0 0 24 24" fill="none" xmlns="http://www.w3.org/2000/svg">
<g clip-path="url(#clip0_66_403)">
<path d="M21.04 10.96L12.64 2.55999C12.29 2.20999 11.72 2.20999 11.37 2.55999L2.96001 10.96C2.61001 11.31 2.61001 11.88 2.96001 12.23C3.31001 12.58 3.88001 12.58 4.23001 12.23L11.99 4.46999L19.75 12.23C19.93 12.41 20.16 12.49 20.39 12.49C20.62 12.49 20.85 12.4 21.03 12.23C21.38 11.88 21.38 11.31 21.03 10.96H21.04Z" fill="#48484E"/>
<path d="M20 15.9H17.7V13.6C17.7 13.1 17.3 12.7 16.8 12.7C16.3 12.7 15.9 13.1 15.9 13.6V15.9H13.6C13.1 15.9 12.7 16.3 12.7 16.8C12.7 17.3 13.1 17.7 13.6 17.7H15.9V20C15.9 20.5 16.3 20.9 16.8 20.9C17.3 20.9 17.7 20.5 17.7 20V17.7H20C20.5 17.7 20.9 17.3 20.9 16.8C20.9 16.3 20.5 15.9 20 15.9Z" fill="#48484E"/>
<path d="M10.8 19.1H6.89998V14.4C6.89998 13.9 6.49998 13.5 5.99998 13.5C5.49998 13.5 5.09998 13.9 5.09998 14.4V20C5.09998 20.5 5.49998 20.9 5.99998 20.9H10.8C11.3 20.9 11.7 20.5 11.7 20C11.7 19.5 11.3 19.1 10.8 19.1Z" fill="#48484E"/>
</g>
<defs>
<clipPath id="clip0_66_403">
<rect width="24" height="24" fill="white"/>
</clipPath>
</defs>
</symbol>
<symbol id="download" viewBox="0 0 24 24" fill="none" xmlns="http://www.w3.org/2000/svg">
<g clip-path="url(#clip0_66_394)">
<path d="M11.29 15.11C11.38 15.2 11.49 15.28 11.62 15.33C11.74 15.38 11.87 15.41 12 15.41C12.13 15.41 12.26 15.38 12.38 15.33C12.5 15.28 12.61 15.21 12.71 15.11L16.44 11.38C16.83 10.99 16.83 10.36 16.44 9.97001C16.05 9.58001 15.42 9.58001 15.03 9.97001L13 12V3.20001C13 2.65001 12.55 2.20001 12 2.20001C11.45 2.20001 11 2.65001 11 3.20001V11.99L8.96996 9.96001C8.57996 9.57001 7.94996 9.57001 7.55996 9.96001C7.16996 10.35 7.16996 10.98 7.55996 11.37L11.29 15.1V15.11Z" fill="#48484E"/>
<path d="M20.4 15.27C19.85 15.27 19.4 15.72 19.4 16.27V18.14C19.4 18.37 19.31 18.59 19.15 18.75C18.99 18.91 18.77 19 18.54 19H5.46999C5.23999 19 5.01999 18.91 4.85999 18.75C4.69999 18.59 4.60999 18.37 4.60999 18.14V16.27C4.60999 15.72 4.15999 15.27 3.60999 15.27C3.05999 15.27 2.60999 15.72 2.60999 16.27V18.14C2.60999 18.89 2.91999 19.63 3.44999 20.17C3.98999 20.71 4.70999 21.01 5.47999 21.01H18.55C19.32 21.01 20.04 20.71 20.58 20.17C21.11 19.64 21.42 18.9 21.42 18.14V16.27C21.42 15.72 20.97 15.27 20.42 15.27H20.4Z" fill="#48484E"/>
</g>
<defs>
<clipPath id="clip0_66_394">
<rect width="24" height="24" fill="white"/>
</clipPath>
</defs>
</symbol>
<symbol id="support" viewBox="0 0 24 24" fill="none" xmlns="http://www.w3.org/2000/svg">
<g clip-path="url(#clip0_66_387)">
<path d="M12 1.90002C6.98002 1.90002 2.90002 5.97002 2.90002 10.98V16.09C2.90002 17.71 4.22002 19.04 5.85002 19.04C7.48002 19.04 8.80002 17.72 8.80002 16.09V14.05C8.80002 12.43 7.48002 11.1 5.85002 11.1C5.44002 11.1 5.05002 11.18 4.70002 11.33V10.97C4.70002 6.96002 7.97002 3.69002 12 3.69002C16.03 3.69002 19.3 6.95003 19.3 10.97V11.33C18.95 11.18 18.56 11.1 18.15 11.1C16.52 11.1 15.2 12.42 15.2 14.05V16.09C15.2 17.28 15.92 18.31 16.94 18.77C16.26 19.53 14.49 20.3 12 20.3C11.5 20.3 11.1 20.7 11.1 21.2C11.1 21.7 11.5 22.1 12 22.1C15.54 22.1 18.31 20.78 18.92 18.92C20.17 18.58 21.1 17.45 21.1 16.09V10.98C21.1 5.97002 17.02 1.90002 12 1.90002ZM5.85002 12.9C6.48002 12.9 7.00002 13.41 7.00002 14.04V16.08C7.00002 16.71 6.48002 17.22 5.85002 17.22C5.22002 17.22 4.70002 16.71 4.70002 16.08V14.04C4.70002 13.41 5.22002 12.9 5.85002 12.9ZM19.3 16.09C19.3 16.72 18.78 17.23 18.15 17.23C17.52 17.23 17 16.72 17 16.09V14.05C17 13.42 17.52 12.91 18.15 12.91C18.78 12.91 19.3 13.42 19.3 14.05V16.09Z" fill="#48484E"/>
</g>
<defs>
<clipPath id="clip0_66_387">
<rect width="24" height="24" fill="white"/>
</clipPath>
</defs>
</symbol>
<symbol id="user" viewBox="0 0 24 24" fill="none" xmlns="http://www.w3.org/2000/svg">
<g clip-path="url(#clip0_66_378)">
<path d="M12 12.9C11.34 12.9 10.7 12.77 10.09 12.52C9.48001 12.27 8.94001 11.9 8.47001 11.44C8.01001 10.98 7.64001 10.43 7.39001 9.81998C7.14001 9.20998 7.01001 8.56998 7.01001 7.90998C7.01001 7.24998 7.14001 6.60998 7.39001 5.99998C7.64001 5.38998 8.00001 4.84998 8.47001 4.37998C8.94001 3.90998 9.48001 3.54998 10.09 3.29998C11.3 2.78998 12.69 2.78998 13.9 3.29998C14.51 3.54998 15.05 3.91998 15.52 4.37998C15.99 4.84998 16.35 5.38998 16.6 5.99998C16.85 6.60998 16.98 7.24998 16.98 7.90998C16.98 8.56998 16.85 9.20998 16.6 9.81998C16.35 10.43 15.98 10.98 15.52 11.44C15.05 11.91 14.51 12.27 13.9 12.52C13.29 12.77 12.65 12.9 11.99 12.9H12ZM12 4.69998C11.58 4.69998 11.17 4.77998 10.78 4.93998C10.39 5.09998 10.05 5.32998 9.75001 5.62998C9.45001 5.92998 9.22001 6.27998 9.06001 6.66998C8.90001 7.05998 8.82001 7.46998 8.82001 7.89998C8.82001 8.32998 8.90001 8.72998 9.06001 9.12998C9.22001 9.51998 9.45001 9.86998 9.75001 10.17C10.05 10.47 10.4 10.7 10.78 10.86C11.56 11.18 12.44 11.18 13.21 10.86C13.6 10.7 13.94 10.47 14.24 10.17C14.54 9.86998 14.77 9.51998 14.93 9.12998C15.09 8.73998 15.17 8.32998 15.17 7.89998C15.17 7.46998 15.09 7.06998 14.93 6.66998C14.77 6.27998 14.54 5.92998 14.24 5.62998C13.94 5.32998 13.59 5.09998 13.21 4.93998C12.82 4.77998 12.41 4.69998 11.99 4.69998H12Z" fill="#48484E"/>
<path d="M19.7 21.1H4.30004C4.01004 21.1 3.73004 20.96 3.57004 20.72C3.40004 20.48 3.36004 20.18 3.46004 19.9C4.09004 18.11 5.23004 16.59 6.77004 15.5C9.85004 13.31 14.17 13.31 17.25 15.5C18.79 16.59 19.93 18.12 20.56 19.9C20.66 20.18 20.61 20.48 20.45 20.72C20.29 20.96 20.01 21.1 19.72 21.1H19.7ZM5.69004 19.3H18.3C17.78 18.38 17.06 17.59 16.19 16.97C13.72 15.22 10.27 15.22 7.80004 16.97C6.93004 17.59 6.21004 18.39 5.69004 19.3Z" fill="#48484E"/>
</g>
<defs>
<clipPath id="clip0_66_378">
<rect width="24" height="24" fill="white"/>
</clipPath>
</defs>
</symbol>
<symbol id="phone-call" viewBox="0 0 20 20" fill="none" xmlns="http://www.w3.org/2000/svg">
<g clip-path="url(#clip0_4_33963)">
<path d="M13.6667 17.5833C12.8834 17.5833 12.1084 17.3583 11.45 16.9333H11.4334C8.12502 14.6916 5.31669 11.875 3.08335 8.56662C2.56669 7.76662 2.35002 6.81662 2.45002 5.89162C2.55002 4.96662 2.96669 4.09162 3.63335 3.42496L4.10002 2.95829C4.80002 2.25829 6.04169 2.25829 6.74169 2.95829L8.72502 4.94162C9.08335 5.29996 9.27502 5.76662 9.27502 6.26662C9.27502 6.76662 9.08335 7.23329 8.72502 7.58329C8.65002 7.65829 8.61669 7.74996 8.61669 7.84996C8.61669 7.94996 8.65835 8.04162 8.72502 8.10829L11.9 11.2833C12.0417 11.425 12.2834 11.425 12.425 11.2833C13.1167 10.5916 14.375 10.5916 15.0667 11.2833L17.0417 13.2583C17.3917 13.6083 17.5917 14.0916 17.5917 14.5833C17.5917 15.075 17.4 15.55 17.0417 15.9L16.5667 16.375C15.9084 17.0333 15.0334 17.45 14.1084 17.5583C13.9584 17.575 13.8167 17.5833 13.6667 17.5833ZM12.2667 15.675C12.7667 15.9916 13.3667 16.125 13.95 16.0666C14.5417 16 15.0917 15.7333 15.5167 15.3166L15.9917 14.85C16.0584 14.7833 16.1 14.6833 16.1 14.5916C16.1 14.5 16.0584 14.4 15.9917 14.325L14.0167 12.35C13.8834 12.2083 13.6334 12.2083 13.4917 12.35C12.7834 13.0583 11.55 13.0583 10.85 12.35L7.67502 9.17496C7.32502 8.82496 7.12502 8.34996 7.12502 7.84996C7.12502 7.34996 7.31669 6.88329 7.67502 6.52496C7.74169 6.45829 7.78335 6.35829 7.78335 6.26662C7.78335 6.17496 7.74169 6.07496 7.67502 5.99996L5.69169 4.02496C5.55002 3.88329 5.30835 3.88329 5.16669 4.02496L4.70002 4.49162C4.28335 4.90829 4.01669 5.46662 3.95002 6.05829C3.88335 6.64996 4.02502 7.24996 4.35002 7.74996C6.46669 10.8833 9.13335 13.55 12.2834 15.675H12.2667Z" fill="#48484E"/>
<path d="M16.8332 9.17497C16.5166 9.17497 16.2249 8.97497 16.1249 8.66664C15.7499 7.5583 15.1166 6.5333 14.2916 5.7083C13.4666 4.8833 12.4416 4.24997 11.3332 3.87497C10.9416 3.74164 10.7249 3.31664 10.8582 2.92497C10.9916 2.5333 11.4166 2.32497 11.8082 2.44997C13.1332 2.89164 14.3582 3.64997 15.3499 4.64164C16.3416 5.6333 17.0999 6.8583 17.5416 8.1833C17.6749 8.57497 17.4582 8.99997 17.0666 9.1333C16.9916 9.1583 16.9082 9.17497 16.8249 9.17497H16.8332Z" fill="#48484E"/>
<path d="M13.5917 9.23332C13.3334 9.23332 13.0917 9.09999 12.9501 8.86666C12.5001 8.12499 11.8751 7.49166 11.1334 7.04999C10.7751 6.83332 10.6667 6.37499 10.8751 6.02499C11.0917 5.66666 11.5501 5.54999 11.9001 5.76666C12.8501 6.34166 13.6584 7.14166 14.2334 8.09999C14.4501 8.45832 14.3334 8.91666 13.9751 9.12499C13.8584 9.19999 13.7251 9.23332 13.5917 9.23332Z" fill="#48484E"/>
</g>
<defs>
<clipPath id="clip0_4_33963">
<rect width="20" height="20" fill="white"/>
</clipPath>
</defs>
</symbol>
</svg>




